<mxfile host="app.diagrams.net" modified="2023-11-02T04:43:14.241Z" agent="Mozilla/5.0 (Macintosh; Intel Mac OS X 10_15_7) AppleWebKit/605.1.15 (KHTML, like Gecko) Version/17.0 Safari/605.1.15" version="22.0.8" etag="pyYTo2efgssUEWMqO02M" type="github">
  <diagram name="第 1 页" id="IPirHwhuUQtOS19m1ug0">
    <mxGraphModel>
      <root>
        <mxCell id="0" />
        <mxCell id="1" parent="0" />
      </root>
    </mxGraphModel>
  </diagram>
</mxfile>
